<svg version="1.1" preserveAspectRatio="none" xmlns="http://www.w3.org/2000/svg" width="500" height="500" viewBox="0 0 500 500"><rect width="100%" height="100%" fill="#1A1A1A" fill-opacity="1"/><svg viewBox="24.9005 81.4391 359.6849 209.6247" width="333" height="194.07271503474288" x="83.5px" y="152.9636px" xmlns="http://www.w3.org/2000/svg" xmlns:xlink="http://www.w3.org/1999/xlink" preserveAspectRatio="none"><defs></defs><style>.companyName {fill:#EBE7D9;fill-opacity:1;}.icon2 {fill:#BA3521;fill-opacity:1;}.icon3 {fill:#F55139;fill-opacity:1;}.icon3-str {stroke:#F55139;stroke-opacity:1;}.shape {fill:#35247B;fill-opacity:1;}</style><g opacity="1" transform="rotate(0 96.8375 81.4391)">
<svg width="215.8109" height="209.6247" x="96.8375" y="81.4391" version="1.1" preserveAspectRatio="none" viewBox="7.699998378753662 9.399999618530272 84.60001373291016 82.17499542236328">
  <g transform="matrix(1 0 0 1 0 0)" class="shape"><path d="M7.8,54.6c0.7,0,1.5,0,2.2,0c1.3,0,2.6,0,4,0c1.9,0,3.9-0.1,5.8-0.1c1.6,0,3.2-0.1,4.8-0.1c1.7,0,3.5-0.1,5.2-0.1  c1.7,0,3.4-0.1,5.1-0.1c1.9,0,3.9-0.1,5.8-0.1c2,0,4.1-0.1,6.1-0.1c0.5,0,0.9,0,1.4,0c-0.9,0-1.9,0-2.8,0c-2.6,0-5.2-0.1-7.7-0.1  c-1.8,0-3.6-0.1-5.3-0.1c-1.8,0-3.5-0.1-5.3-0.1c-1.5,0-2.9-0.1-4.4-0.1c-1.7,0-3.3-0.1-5-0.1c-2.1,0-4.3-0.1-6.4-0.1  c-1.2,0-2.4-0.1-3.6-0.1c1.3,0,2.7,0,4,0c1.8,0,3.6-0.1,5.4-0.1c0.7,0,1.5,0,2.2,0c2,0,3.9-0.1,5.9-0.1c0.7,0,1.5,0,2.2,0  c1.6,0,3.2-0.1,4.8-0.1c2.1,0,4.3-0.1,6.4-0.1c1.9,0,3.7-0.1,5.6-0.1c0.8,0,1.5,0,2.3-0.1c-0.1,0-0.3,0-0.4,0c-0.9,0-1.7,0-2.6,0  c-1.8,0-3.7-0.1-5.5-0.1c-1.6,0-3.3,0-4.9-0.1c-1.9,0-3.8-0.1-5.7-0.1c-1.7,0-3.4-0.1-5.1-0.1c-1.6,0-3.2-0.1-4.7-0.1  c-1.6,0-3.2,0-4.8-0.1c-1.7,0-3.4-0.1-5.1-0.1c0.7,0,1.4,0,2.1,0c1.4,0,2.7,0,4.1,0c1.9,0,3.8-0.1,5.7-0.1c1.6,0,3.2-0.1,4.8-0.1  c1.7,0,3.4-0.1,5.1-0.1c1.7,0,3.3-0.1,5-0.1c2,0,4.1-0.1,6.1-0.1c1.6,0,3.3,0,4.9-0.1c0.3,0,0.6,0,1,0c-0.7,0-1.3,0-2-0.1  c-1.8,0-3.7-0.1-5.5-0.1c-1.2,0-2.4,0-3.6-0.1c-1.1,0-2.2,0-3.4,0c-1.5,0-3-0.1-4.5-0.1c-1.5,0-3,0-4.5-0.1c-2.1,0-4.1-0.1-6.2-0.1  c-2,0-4-0.1-6-0.1c-1,0-2-0.1-3-0.1c0.6,0,1.1,0,1.7,0c1.5,0,3,0,4.6,0c1.7,0,3.3-0.1,5-0.1c1.6,0,3.2-0.1,4.8-0.1  c1.8,0,3.6-0.1,5.5-0.1c1.5,0,2.9-0.1,4.4-0.1c1.6,0,3.3-0.1,4.9-0.1c2.5,0,5.1-0.1,7.6-0.1c0.1,0,0.1,0,0.2,0c-0.6,0-1.2,0-1.8,0  c-1.9,0-3.7-0.1-5.6-0.1c-1.1,0-2.2,0-3.4-0.1c-1.1,0-2.3,0-3.4,0c-1.8,0-3.7-0.1-5.5-0.1c-1.4,0-2.8,0-4.1-0.1  c-1.6,0-3.3-0.1-4.9-0.1c-1.5,0-2.9-0.1-4.4-0.1c-1.8,0-3.6-0.1-5.4-0.1c0.6,0,1.2,0,1.8,0c1.4,0,2.8,0,4.2,0c1.6,0,3.2-0.1,4.8-0.1  c1.5,0,3.1,0,4.6-0.1c1.4,0,2.7-0.1,4.1-0.1c2.5,0,4.9-0.1,7.4-0.1c1.8,0,3.6-0.1,5.5-0.1c2.2,0,4.5-0.1,6.7-0.1c0.1,0,0.2,0,0.3,0  c-1,0-1.9,0-2.9-0.1c-1.5,0-2.9,0-4.4-0.1c-2.2,0-4.4-0.1-6.6-0.1c-2,0-4-0.1-6-0.1c-1.1,0-2.2,0-3.4-0.1c-1.6,0-3.1-0.1-4.7-0.1  c-0.7,0-1.5,0-2.2,0c-1.7,0-3.5,0-5.2-0.1c-1.4,0-2.7-0.1-4.1-0.1c0.6,0,1.2,0,1.8,0c1.5,0,3,0,4.5,0c1.6,0,3.2-0.1,4.7-0.1  c1.9,0,3.9-0.1,5.8-0.1c1.7,0,3.5-0.1,5.2-0.1c1.7,0,3.3-0.1,5-0.1c2,0,4-0.1,6-0.1c2.2,0,4.4-0.1,6.6-0.1c2.4,0,4.9,0,7.3,0  c2.8,0,5.6,0.1,8.3,0.1c2.1,0,4.2,0.1,6.3,0.1c1.7,0,3.4,0.1,5.1,0.1c1.7,0,3.4,0.1,5.1,0.1c1.9,0,3.7,0.1,5.6,0.1  c2.3,0,4.5,0.1,6.8,0.1c0,0,0.1,0,0.2,0c-1.1,0-2,0.1-3,0.1c-1.7,0-3.5,0-5.2,0.1c-1.8,0-3.7,0.1-5.5,0.1c-1.5,0-3,0.1-4.6,0.1  c-1.4,0-2.9,0.1-4.3,0.1c-1.4,0-2.9,0.1-4.3,0.1c-1.2,0-2.4,0-3.6,0.1c-0.7,0-1.4,0-2.1,0c-2.3,0-4.5,0.1-6.8,0.1c1.5,0,2.9,0,4.4,0  c1.7,0,3.5,0.1,5.2,0.1c2.1,0,4.2,0.1,6.3,0.1c1.8,0,3.6,0.1,5.3,0.1c1.9,0,3.7,0.1,5.6,0.1c1.5,0,3.1,0.1,4.6,0.1  c2.2,0,4.3,0.1,6.5,0.1c0.5,0,1,0,1.5,0c-1,0-2,0.1-3,0.1c-1.7,0-3.4,0-5.2,0.1c-1.7,0-3.5,0.1-5.2,0.1c-1.8,0-3.6,0.1-5.4,0.1  c-1.5,0-3.1,0.1-4.6,0.1c-1.7,0-3.4,0.1-5.1,0.1c-2,0-4,0.1-6,0.1c-1.4,0-2.8,0.1-4.2,0.1c1.2,0,2.5,0,3.7,0c1.3,0,2.6,0,3.8,0.1  c1.2,0,2.3,0,3.5,0.1c1.5,0,3,0.1,4.6,0.1c1.9,0,3.7,0.1,5.6,0.1c1.8,0,3.6,0.1,5.3,0.1c1.7,0,3.5,0.1,5.2,0.1  c2.4,0,4.7,0.1,7.1,0.1c-0.2,0-0.5,0-0.7,0c-2,0-4,0.1-6,0.1c-1.5,0-3,0.1-4.6,0.1c-2,0-4,0.1-6.1,0.1c-1.8,0-3.6,0.1-5.4,0.1  c-1.9,0-3.8,0.1-5.7,0.1c-1.7,0-3.3,0.1-5,0.1c-1.5,0-3,0.1-4.5,0.1c-0.2,0-0.3,0-0.5,0c1,0,2.1,0,3.1,0c1.9,0,3.8,0.1,5.7,0.1  c0.5,0,1,0,1.5,0c1.5,0,3.1,0,4.6,0.1c1.7,0,3.5,0.1,5.2,0.1c1.8,0,3.7,0.1,5.5,0.1c1.5,0,3,0.1,4.6,0.1c2.2,0,4.5,0.1,6.7,0.1  c0.5,0,1,0,1.5,0c-0.7,0-1.4,0-2,0.1c-1.3,0-2.7,0-4,0.1c-1.2,0-2.3,0-3.5,0.1c-1.2,0-2.3,0-3.5,0.1c-1.6,0-3.2,0.1-4.7,0.1  c-1.4,0-2.9,0.1-4.3,0.1c-1.9,0-3.8,0.1-5.7,0.1c-1.7,0-3.4,0-5.1,0.1c-1.6,0-3.3,0.1-4.9,0.1c-0.4,0-0.9,0-1.3,0c1.2,0,2.4,0,3.6,0  c1.3,0,2.7,0,4,0.1c1.3,0,2.5,0,3.8,0.1c1.5,0,3.1,0.1,4.6,0.1c1.5,0,2.9,0.1,4.4,0.1c2.1,0,4.3,0.1,6.4,0.1c1.9,0,3.8,0.1,5.7,0.1  c1.7,0,3.4,0,5.1,0.1c0.5,0,1,0,1.5,0.1c-0.6,0-1.3,0-1.9,0.1c-2,0-4.1,0.1-6.1,0.1c-1.9,0-3.7,0.1-5.6,0.1c-1.7,0-3.3,0.1-5,0.1  c-1.8,0-3.6,0.1-5.5,0.1c-1,0-2,0-3.1,0c-1.3,0-2.5,0.1-3.8,0.1c-1,0-2,0-3.1,0c-2.1,0-4.3,0.1-6.4,0.1c-0.1,0-0.2,0-0.3,0  c1.5,0,3.1,0,4.6,0c1.5,0,3.1,0,4.6,0.1c1,0,2.1,0,3.1,0c1.7,0,3.4,0.1,5.2,0.1c1.8,0,3.7,0.1,5.5,0.1c1.7,0,3.4,0.1,5.2,0.1  c1.8,0,3.6,0.1,5.4,0.1c2.4,0,4.7,0.1,7.1,0.1c-1.6,0-3.2,0.1-4.8,0.1c-1.7,0-3.5,0.1-5.2,0.1c-1.1,0-2.2,0-3.3,0  c-1.5,0-3,0.1-4.5,0.1c-1.9,0-3.9,0.1-5.8,0.1c-1.6,0-3.2,0.1-4.8,0.1c-1.9,0-3.7,0.1-5.6,0.1c-2.3,0-4.6,0.1-6.8,0.1  c-2.1,0-4.3,0-6.4,0c-2,0-4.1-0.1-6.1-0.1c-1.8,0-3.6-0.1-5.3-0.1c-1.7,0-3.3-0.1-5-0.1c-1.9,0-3.8-0.1-5.7-0.1  c-1.8,0-3.7-0.1-5.5-0.1c-1.5,0-3,0-4.5-0.1C11,54.7,9.4,54.7,7.8,54.6C7.8,54.6,7.8,54.6,7.8,54.6z M48.7,54  C48.7,54,48.7,54,48.7,54c0.1,0,0.1,0,0.2,0c0,0,0,0,0,0C48.9,54,48.8,54,48.7,54z M50.4,54L50.4,54L50.4,54L50.4,54z M47.7,48.5  L47.7,48.5L47.7,48.5L47.7,48.5z"></path><path d="M8.1,46.4c0.7,0,1.4,0,2.1,0c2,0,4-0.1,6.1-0.1c1,0,2.1,0,3.1,0c1.6,0,3.1-0.1,4.7-0.1c1.9,0,3.7-0.1,5.6-0.1  c1.5,0,3-0.1,4.5-0.1c1.6,0,3.2-0.1,4.8-0.1c1.5,0,2.9,0,4.4-0.1c2.1,0,4.3,0,6.4,0c2.6,0,5.2,0,7.8,0c2.1,0,4.2,0.1,6.2,0.1  c1.8,0,3.6,0.1,5.3,0.1c1.7,0,3.4,0.1,5.1,0.1c1.7,0,3.3,0.1,5,0.1c1.9,0,3.8,0.1,5.6,0.1c2.3,0,4.6,0.1,6.8,0.1c0,0,0.1,0,0.1,0  c-1.6,0-3.2,0.1-4.8,0.1c-1.8,0-3.6,0.1-5.4,0.1c-1,0-2.1,0-3.1,0c-1.5,0-2.9,0.1-4.4,0.1c-1.9,0-3.8,0.1-5.7,0.1  c-1.6,0-3.2,0.1-4.7,0.1c-1.7,0-3.4,0.1-5.1,0.1c-1.8,0-3.7,0.1-5.5,0.1c-2.3,0-4.7,0-7,0c-2.3,0-4.6-0.1-7-0.1  c-2.2,0-4.4-0.1-6.6-0.1c-3-0.1-5.9-0.1-8.9-0.2c-2.1,0-4.3-0.1-6.4-0.1c-2.1,0-4.3-0.1-6.4-0.1C9.9,46.5,9,46.4,8.1,46.4  C8.1,46.4,8.1,46.4,8.1,46.4z"></path><path d="M8.2,56c1.9,0,3.7,0,5.6-0.1c1.8,0,3.6-0.1,5.3-0.1c1.9,0,3.8-0.1,5.7-0.1c1.8,0,3.5-0.1,5.3-0.1c1.6,0,3.2-0.1,4.8-0.1  c1.8,0,3.6-0.1,5.4-0.1c1.7,0,3.5-0.1,5.2-0.1c2.5,0,5,0,7.6,0c1.6,0,3.1,0,4.7,0c2,0,4,0.1,6.1,0.1c1.8,0,3.6,0.1,5.3,0.1  c1.7,0,3.3,0.1,5,0.1c1.7,0,3.5,0.1,5.2,0.1c1.8,0,3.6,0.1,5.4,0.1c2.4,0,4.7,0.1,7.1,0.1c0,0,0.1,0,0.2,0c-0.7,0-1.4,0-2,0.1  c-1.6,0-3.3,0.1-4.9,0.1c-1.7,0-3.4,0.1-5.1,0.1c-0.6,0-1.3,0-1.9,0c-1.4,0-2.9,0.1-4.3,0.1c-1.4,0-2.8,0.1-4.2,0.1  c-1.1,0-2.2,0-3.3,0.1c-0.9,0-1.9,0-2.8,0c-2.9,0-5.9,0.1-8.8,0.1c-2.4,0-4.9,0-7.3,0c-2.6,0-5.2-0.1-7.8-0.1c-1.7,0-3.5,0-5.2-0.1  c-1.4,0-2.8-0.1-4.2-0.1c-2,0-4.1-0.1-6.1-0.1c-2.3,0-4.6-0.1-6.9-0.1c-1.5,0-2.9,0-4.4-0.1C11.2,56.1,9.7,56,8.2,56  C8.2,56,8.2,56,8.2,56z"></path><path d="M8.4,45c1.2,0,2.5,0,3.7,0c1.9,0,3.7-0.1,5.6-0.1c2.5,0,5-0.1,7.4-0.1c1.8,0,3.5-0.1,5.3-0.1c1.7,0,3.5-0.1,5.2-0.1  c2.2,0,4.5,0,6.7-0.1c4.1-0.1,8.2-0.1,12.3,0c2.5,0,5,0.1,7.4,0.1c2.3,0,4.6,0.1,6.9,0.1c1.7,0,3.4,0.1,5.1,0.1  c1.7,0,3.5,0.1,5.2,0.1c1.9,0,3.7,0.1,5.6,0.1c2.3,0,4.6,0.1,7,0.1c-0.3,0-0.6,0-0.9,0c-2,0.1-3.9,0.1-5.9,0.1c-1,0-2.1,0-3.1,0.1  c-1.1,0-2.2,0-3.2,0.1c-1.6,0-3.2,0.1-4.8,0.1c-1.9,0-3.9,0.1-5.8,0.1c-1.9,0-3.7,0.1-5.6,0.1c-2.5,0-5,0.1-7.5,0.1  c-3,0.1-6,0-8.9,0c-2.5,0-5-0.1-7.6-0.1c-1.8,0-3.7-0.1-5.5-0.1c-1.9,0-3.8-0.1-5.7-0.1c-0.8,0-1.6,0-2.5,0c-1.7,0-3.3-0.1-5-0.1  c-2.3,0-4.6-0.1-7-0.1C11.3,45.1,9.8,45.1,8.4,45C8.4,45,8.4,45,8.4,45z"></path><path d="M91.7,57.3c-0.6,0-1.3,0-1.9,0.1c-2.2,0-4.3,0.1-6.5,0.1c-1.9,0-3.7,0.1-5.6,0.1c-1.9,0-3.7,0.1-5.6,0.1  c-1.6,0-3.2,0.1-4.8,0.1c-2,0-4,0.1-6,0.1c-2.5,0-5.1,0.1-7.6,0.1c-2.5,0-5,0-7.6,0c-2.3,0-4.6,0-6.8-0.1c-1.9,0-3.9-0.1-5.8-0.1  c-1.7,0-3.4-0.1-5.1-0.1c-1.8,0-3.6-0.1-5.3-0.1c-1.9,0-3.7-0.1-5.6-0.1c-2.1,0-4.2-0.1-6.2-0.1c-1,0-2-0.1-3-0.1c0.8,0,1.6,0,2.4,0  c1.4,0,2.7,0,4.1-0.1c1.1,0,2.2,0,3.3-0.1c1.2,0,2.4,0,3.6-0.1c1.1,0,2.3,0,3.4-0.1c1.4,0,2.8-0.1,4.2-0.1c1.6,0,3.2-0.1,4.8-0.1  c1.7,0,3.4-0.1,5.1-0.1c1,0,1.9,0,2.9,0c2.1,0,4.2-0.1,6.2-0.1c2.4,0,4.8,0,7.2,0c2.6,0,5.1,0.1,7.7,0.1c1.9,0,3.7,0.1,5.6,0.1  c1.6,0,3.3,0.1,4.9,0.1c1.7,0,3.5,0.1,5.2,0.1c1.9,0,3.8,0.1,5.7,0.1C87.1,57.3,89.4,57.3,91.7,57.3C91.7,57.3,91.7,57.3,91.7,57.3z  "></path><path d="M8.4,43.6c1.6,0,3.3,0,4.9,0c2.3,0,4.6-0.1,6.9-0.1c1.8,0,3.6-0.1,5.5-0.1c1.7,0,3.4-0.1,5.1-0.1c1.9,0,3.8-0.1,5.7-0.1  c1.7,0,3.5-0.1,5.2-0.1c2.2,0,4.3-0.1,6.5-0.1c2.2,0,4.5,0,6.7,0c2.6,0,5.2,0.1,7.8,0.1c1.9,0,3.8,0.1,5.7,0.1  c1.9,0,3.7,0.1,5.6,0.1c1.5,0,3.1,0.1,4.6,0.1c1.7,0,3.3,0.1,5,0.1c1.9,0,3.7,0.1,5.6,0.1c0.9,0,1.8,0,2.7,0c-0.7,0-1.4,0-2.1,0.1  c-1.3,0-2.6,0.1-4,0.1c-2.2,0-4.4,0.1-6.7,0.1c-2.3,0-4.6,0.1-6.8,0.1c-1.5,0-3,0-4.5,0.1c-1.7,0-3.3,0.1-5,0.1  c-2,0-4.1,0.1-6.1,0.1c-2.6,0-5.3,0.1-7.9,0.1c-2.8,0-5.6,0-8.3-0.1c-1.9,0-3.9-0.1-5.8-0.1c-1.9,0-3.9-0.1-5.8-0.1  c-1.9,0-3.7-0.1-5.6-0.1c-1.8,0-3.6-0.1-5.4-0.1c-2.1,0-4.1-0.1-6.2-0.1C10.4,43.7,9.4,43.7,8.4,43.6C8.4,43.7,8.4,43.7,8.4,43.6z"></path><path d="M8.5,58.7c1.4,0,2.7,0,4.1,0c1.3,0,2.6,0,4-0.1c1.1,0,2.2,0,3.3-0.1c1.7,0,3.4-0.1,5.1-0.1c1.9,0,3.8-0.1,5.7-0.1  c1.9,0,3.8-0.1,5.7-0.1c1.7,0,3.5-0.1,5.2-0.1c3.2,0,6.3-0.1,9.5-0.1c1.3,0,2.6,0,4,0c2.6,0,5.2,0.1,7.8,0.1c1.7,0,3.5,0.1,5.2,0.1  c2,0,4.1,0.1,6.1,0.1c1.4,0,2.7,0,4.1,0.1c1.7,0,3.5,0.1,5.2,0.1c1.8,0,3.5,0.1,5.3,0.1c0.8,0,1.7,0,2.5,0.1c-0.2,0-0.4,0-0.5,0  c-1.7,0.1-3.5,0.1-5.2,0.1c-2.3,0-4.6,0.1-6.9,0.1c-2.3,0-4.5,0.1-6.8,0.1c-1.8,0-3.7,0.1-5.5,0.1c-1.1,0-2.2,0-3.3,0.1  c-1.8,0-3.6,0.1-5.4,0.1c-2.6,0-5.2,0-7.8,0c-2.4,0-4.7,0-7.1,0c-1.5,0-3.1,0-4.6-0.1c-1.2,0-2.4,0-3.6,0c-1.9,0-3.8-0.1-5.7-0.1  c-1.7,0-3.3-0.1-5-0.1c-1.6,0-3.3-0.1-4.9-0.1c-1.7,0-3.3-0.1-5-0.1c-0.9,0-1.8,0-2.6,0C10.3,58.8,9.4,58.7,8.5,58.7  C8.5,58.7,8.5,58.7,8.5,58.7z"></path><path d="M91.3,42.3c-1.7,0-3.3,0.1-5,0.1c-1.8,0-3.6,0.1-5.4,0.1c-1.1,0-2.1,0-3.2,0c-1.6,0-3.2,0.1-4.8,0.1c-2,0-3.9,0.1-5.9,0.1  c-1.7,0-3.4,0.1-5.2,0.1c-2.1,0-4.1,0.1-6.2,0.1c-2.5,0-5,0-7.6,0c-2.7,0-5.4,0-8.1-0.1c-2,0-4.1-0.1-6.1-0.1  c-1.8,0-3.6-0.1-5.5-0.1c-1.6,0-3.3-0.1-4.9-0.1c-2,0-3.9-0.1-5.9-0.1c-1.8,0-3.5,0-5.3-0.1c-1.3,0-2.5-0.1-3.8-0.1  c0.6,0,1.2,0,1.8,0c1.5,0,3,0,4.5,0c1.7,0,3.4-0.1,5.1-0.1c2,0,4-0.1,6-0.1c1.9,0,3.7-0.1,5.6-0.1c1.9,0,3.9-0.1,5.8-0.1  c3.1,0,6.1-0.1,9.2-0.1c2,0,4,0,6,0c2.6,0,5.1,0,7.7,0.1c2.3,0,4.6,0.1,6.8,0.1c2,0,4,0.1,6.1,0.1c2,0,4.1,0.1,6.1,0.1  c0.9,0,1.8,0,2.7,0c1.5,0,2.9,0,4.4,0.1c1.6,0,3.2,0,4.8,0.1C91.1,42.3,91.2,42.3,91.3,42.3C91.3,42.3,91.3,42.3,91.3,42.3z"></path><path d="M91.1,60.1c-2.2,0-4.3,0.1-6.5,0.1c-1.4,0-2.8,0-4.1,0.1c-1,0-2.1,0-3.1,0c-1.5,0-3.1,0.1-4.6,0.1c-2.2,0-4.5,0.1-6.7,0.1  c-1.9,0-3.9,0.1-5.8,0.1c-2.2,0-4.3,0-6.5,0.1c-3.1,0-6.1,0-9.2,0c-2.3,0-4.5-0.1-6.8-0.1c-0.8,0-1.6,0-2.4,0  c-1.9,0-3.8-0.1-5.7-0.1c-1.2,0-2.4,0-3.6-0.1c-1.7,0-3.4-0.1-5.1-0.1c-0.8,0-1.6,0-2.4,0c-1.7,0-3.4,0-5.1-0.1  c-1.5,0-3.1-0.1-4.6-0.1c1.7,0,3.5,0,5.2-0.1c2.4,0,4.7-0.1,7.1-0.1c1.8,0,3.5-0.1,5.3-0.1c1.8,0,3.5-0.1,5.3-0.1  c1.9,0,3.8-0.1,5.7-0.1c2.9,0,5.9-0.1,8.8-0.1c2,0,4,0,6,0c2.7,0,5.5,0,8.2,0.1c2.4,0,4.8,0.1,7.2,0.1c1.8,0,3.6,0.1,5.4,0.1  c1.8,0,3.5,0.1,5.3,0.1c1.9,0,3.8,0.1,5.7,0.1C86.3,60,88.7,60,91.1,60.1C91.1,60.1,91.1,60.1,91.1,60.1z"></path><path d="M91,40.9c-0.4,0-0.8,0-1.2,0c-1.9,0-3.9,0.1-5.8,0.1c-1.5,0-3.1,0.1-4.6,0.1c-2.6,0-5.1,0.1-7.7,0.1c-1.6,0-3.2,0.1-4.7,0.1  c-1.9,0-3.9,0-5.8,0.1c-5,0.1-10.1,0.1-15.1,0.1c-1.6,0-3.2,0-4.8,0c-2.2,0-4.4-0.1-6.6-0.1c-1.5,0-2.9,0-4.4-0.1  c-2.2,0-4.3-0.1-6.5-0.1c-1.8,0-3.6-0.1-5.5-0.1c-2.1,0-4.3-0.1-6.4-0.1c-1,0-1.9-0.1-2.9-0.1c0.6,0,1.3,0,1.9,0c1.4,0,2.9,0,4.3,0  c1.7,0,3.4-0.1,5.1-0.1c2.1,0,4.1-0.1,6.2-0.1c0.6,0,1.2,0,1.9,0c1.2,0,2.4,0,3.6,0c1.2,0,2.4,0,3.6-0.1c2.8,0,5.7-0.1,8.5-0.1  c2.9,0,5.8,0,8.7,0c2.6,0,5.2,0,7.8,0c2.1,0,4.2,0.1,6.3,0.1c1.9,0,3.8,0.1,5.7,0.1c1.7,0,3.5,0.1,5.2,0.1c2.1,0,4.1,0.1,6.2,0.1  c1.4,0,2.9,0,4.3,0.1C89.2,40.9,90.1,40.9,91,40.9C91,40.9,91,40.9,91,40.9z"></path><path d="M90.6,61.5c-1.7,0-3.3,0.1-5,0.1c-1.8,0-3.6,0.1-5.3,0.1c-1.2,0-2.4,0-3.6,0.1c-1.7,0-3.4,0.1-5.1,0.1c-1.7,0-3.3,0.1-5,0.1  c-1.3,0-2.5,0-3.8,0.1c-1.9,0-3.8,0-5.7,0.1c-3.4,0-6.9,0-10.3,0c-3.1,0-6.2,0-9.3-0.1c-2.4,0-4.9-0.1-7.3-0.1c-1.8,0-3.7,0-5.5-0.1  c-2.1,0-4.1-0.1-6.2-0.1c-1.4,0-2.8,0-4.2-0.1c-1.6,0-3.3-0.1-4.9-0.1c0.6,0,1.1,0,1.7,0c1.5,0,2.9,0,4.4,0c1.7,0,3.4-0.1,5.1-0.1  c2,0,4-0.1,6.1-0.1c1.4,0,2.9,0,4.3-0.1c2.1,0,4.1-0.1,6.2-0.1c2.9,0,5.7-0.1,8.6-0.1c1.6,0,3.2,0,4.8,0c2.8,0,5.7,0,8.5,0  c2.4,0,4.8,0.1,7.2,0.1c2.1,0,4.1,0.1,6.2,0.1c1.9,0,3.7,0.1,5.6,0.1c1.8,0,3.6,0.1,5.5,0.1C85.8,61.4,88.2,61.4,90.6,61.5  C90.6,61.4,90.6,61.5,90.6,61.5z"></path><path d="M9.2,39.5c1.7,0,3.4,0,5.1-0.1c2.4,0,4.8-0.1,7.2-0.1c1.9,0,3.8-0.1,5.7-0.1c1.9,0,3.9-0.1,5.8-0.1c2.2,0,4.4-0.1,6.7-0.1  C44.3,39,49,39,53.6,39c1.8,0,3.6,0,5.4,0c2.4,0,4.8,0.1,7.2,0.1c1.9,0,3.7,0.1,5.6,0.1c2,0,4,0.1,6,0.1c1.9,0,3.7,0.1,5.6,0.1  c2.4,0,4.8,0.1,7.2,0.1c-1.6,0-3.2,0.1-4.8,0.1c-1.3,0-2.6,0-3.9,0c-1.9,0-3.7,0.1-5.6,0.1c-1.9,0-3.9,0.1-5.8,0.1  c-1.9,0-3.7,0.1-5.6,0.1c-1.7,0-3.4,0.1-5.1,0.1c-3.2,0-6.4,0.1-9.7,0.1c-2.5,0-5,0-7.6,0c-1.6,0-3.3,0-4.9-0.1c-1.3,0-2.7,0-4-0.1  c-1.3,0-2.5,0-3.8-0.1c-1.9,0-3.8-0.1-5.7-0.1c-1.7,0-3.5-0.1-5.2-0.1c-2.3,0-4.6-0.1-6.9-0.1C11.2,39.6,10.2,39.6,9.2,39.5  C9.2,39.6,9.2,39.5,9.2,39.5z"></path><path d="M90.4,62.8c-2.5,0-5,0.1-7.4,0.1c-2.4,0-4.7,0.1-7.1,0.1c-1.9,0-3.9,0.1-5.8,0.1c-2.1,0-4.1,0.1-6.2,0.1  c-3.2,0-6.3,0.1-9.5,0.1c-2.4,0-4.7,0-7.1,0c-2.9,0-5.7,0-8.6-0.1c-2.5,0-4.9-0.1-7.4-0.1c-2.1,0-4.1-0.1-6.2-0.1  c-2,0-3.9-0.1-5.9-0.1c-2.2,0-4.4-0.1-6.6-0.1c-1,0-1.9-0.1-2.9-0.1c0.7,0,1.3,0,2,0c1.5,0,3,0,4.5,0c1.9,0,3.8-0.1,5.7-0.1  c1.9,0,3.8-0.1,5.7-0.1c1.8,0,3.6-0.1,5.4-0.1c2.2,0,4.4,0,6.6-0.1c4.5-0.1,9.1-0.1,13.6-0.1c2,0,4,0,6.1,0c2.3,0,4.6,0.1,6.9,0.1  c1.8,0,3.6,0.1,5.4,0.1c1.9,0,3.8,0.1,5.7,0.1c1.9,0,3.7,0.1,5.6,0.1C85.3,62.7,87.9,62.8,90.4,62.8C90.4,62.8,90.4,62.8,90.4,62.8z  "></path><path d="M9.7,38.2c0.8,0,1.5,0,2.3,0c1.4,0,2.7,0,4.1,0c2.1,0,4.1-0.1,6.2-0.1c1.9,0,3.8-0.1,5.7-0.1c2,0,4-0.1,6.1-0.1  c2.6,0,5.2,0,7.7-0.1c4.1-0.1,8.1-0.1,12.2,0c3.1,0,6.3,0.1,9.4,0.1c2.5,0,5.1,0.1,7.6,0.1c1.9,0,3.8,0.1,5.7,0.1  c1.9,0,3.8,0.1,5.7,0.1c2.6,0,5.1,0.1,7.7,0.1c0.1,0,0.1,0,0.2,0c-0.6,0-1.2,0-1.9,0c-2.3,0-4.6,0.1-7,0.1c-1.9,0-3.8,0.1-5.7,0.1  c-2.1,0-4.3,0.1-6.4,0.1c-1.7,0-3.4,0-5.1,0.1c-2.1,0-4.1,0.1-6.2,0.1c-1,0-2,0-3,0c-3,0-6,0-8.9,0c-2.4,0-4.7,0-7.1-0.1  c-2.6,0-5.2-0.1-7.8-0.1c-1.6,0-3.2,0-4.8-0.1c-1.6,0-3.1-0.1-4.7-0.1c-2.5,0-5.1-0.1-7.6-0.1C12.7,38.3,11.2,38.2,9.7,38.2  C9.7,38.2,9.7,38.2,9.7,38.2z"></path><path d="M9.7,64.2c1.5,0,2.9,0,4.4,0c1.5,0,3,0,4.5-0.1c1.2,0,2.4,0,3.6,0c1.7,0,3.3-0.1,5-0.1c1.7,0,3.4-0.1,5.1-0.1  c1.1,0,2.2,0,3.2-0.1c2,0,4,0,6.1-0.1c4,0,8.1-0.1,12.1,0c3.2,0,6.4,0.1,9.6,0.1c2.5,0,5,0.1,7.4,0.1c1.9,0,3.8,0.1,5.7,0.1  c2,0,4.1,0.1,6.1,0.1c2.4,0,4.7,0.1,7.1,0.1c0,0,0.1,0,0.1,0c-0.3,0-0.5,0-0.8,0c-2.1,0.1-4.3,0.1-6.4,0.1c-1.2,0-2.3,0-3.5,0.1  c-1.3,0-2.5,0-3.8,0.1c-1.8,0-3.6,0.1-5.4,0.1c-1.9,0-3.8,0.1-5.7,0.1c-1.6,0-3.3,0.1-4.9,0.1c-0.9,0-1.8,0-2.7,0  c-3.2,0-6.4,0-9.6,0c-2.9,0-5.7,0-8.6-0.1c-2.5,0-4.9-0.1-7.4-0.1c-1.8,0-3.6,0-5.4-0.1c-2,0-4-0.1-6.1-0.1c-2.2,0-4.4-0.1-6.6-0.1  C12.1,64.3,10.9,64.2,9.7,64.2C9.7,64.2,9.7,64.2,9.7,64.2z"></path><path d="M89.7,36.9c-2.2,0-4.4,0.1-6.6,0.1c-1.3,0-2.5,0-3.8,0.1c-1.2,0-2.4,0-3.6,0.1c-1.7,0-3.4,0-5.1,0.1c-2.1,0-4.1,0.1-6.2,0.1  c-4.4,0.1-8.8,0.1-13.1,0.1c-3.2,0-6.5,0-9.7,0c-1,0-2.1,0-3.1,0c-2.3,0-4.6-0.1-6.9-0.1c-1.2,0-2.5,0-3.7-0.1c-1.2,0-2.5,0-3.7-0.1  c-1.2,0-2.5,0-3.7-0.1c-1.9,0-3.9-0.1-5.8-0.1c-1.5,0-3-0.1-4.6-0.1c0.8,0,1.7,0,2.5,0c1.5,0,2.9,0,4.4,0c2,0,4-0.1,6-0.1  c2.1,0,4.1-0.1,6.2-0.1c2.1,0,4.1-0.1,6.2-0.1c3.1,0,6.2-0.1,9.3-0.1c3.1,0,6.2,0,9.3,0c2.8,0,5.6,0,8.3,0.1c2.7,0,5.4,0.1,8.1,0.1  c2,0,4.1,0.1,6.1,0.1c1.9,0,3.9,0.1,5.8,0.1C84.7,36.7,87.2,36.8,89.7,36.9C89.7,36.8,89.7,36.8,89.7,36.9z"></path><path d="M10.5,65.5c0.9,0,1.7,0,2.6,0c1.4,0,2.8,0,4.2,0c1.2,0,2.3,0,3.5-0.1c2.1,0,4.1-0.1,6.2-0.1c1.3,0,2.6,0,3.9-0.1  c1.4,0,2.7,0,4.1,0c2.6,0,5.1-0.1,7.7-0.1c3.9,0,7.9,0,11.8,0c2.6,0,5.2,0,7.7,0.1c2.6,0,5.2,0.1,7.8,0.1c2,0,4,0.1,6,0.1  c2,0,4,0.1,6.1,0.1c2.3,0,4.6,0.1,6.9,0.1c0.1,0,0.2,0,0.2,0c-0.3,0-0.7,0-1,0c-2,0-4,0.1-6,0.1c-1.2,0-2.5,0-3.7,0.1  c-1.5,0-3,0-4.5,0.1c-2.1,0-4.1,0.1-6.2,0.1c-2.5,0-5,0.1-7.5,0.1c-4.9,0.1-9.8,0.1-14.8,0c-1.8,0-3.6,0-5.4,0c-1.9,0-3.9,0-5.8-0.1  c-2.3,0-4.6-0.1-7-0.1c-2.3,0-4.6-0.1-6.9-0.1c-2.4,0-4.9-0.1-7.3-0.1C12.2,65.6,11.3,65.6,10.5,65.5C10.5,65.5,10.5,65.5,10.5,65.5  z"></path><path d="M89.3,35.5c-0.4,0-0.7,0-1.1,0c-2,0-4.1,0.1-6.1,0.1c-1.7,0-3.4,0.1-5.1,0.1c-2.4,0-4.8,0.1-7.2,0.1c-2.5,0-4.9,0.1-7.4,0.1  c-4.5,0-9.1,0.1-13.6,0.1c-2.9,0-5.9,0-8.8,0c-2.3,0-4.7-0.1-7-0.1c-2,0-4-0.1-6-0.1c-1.8,0-3.6-0.1-5.5-0.1c-1.9,0-3.7,0-5.6-0.1  c-1.8,0-3.6-0.1-5.4-0.1c0.8,0,1.6,0,2.4,0c1.5,0,3.1,0,4.6,0c2.1,0,4.2-0.1,6.2-0.1c2,0,4.1-0.1,6.1-0.1c2.3,0,4.6-0.1,6.9-0.1  c3,0,6-0.1,8.9-0.1c2.9,0,5.9,0,8.8,0c1.7,0,3.5,0,5.2,0c2.9,0,5.7,0.1,8.6,0.1c2,0,3.9,0.1,5.9,0.1c2.4,0,4.8,0.1,7.2,0.1  c2.6,0,5.1,0.1,7.7,0.1C89.1,35.4,89.2,35.4,89.3,35.5z"></path><path d="M89,66.9c-0.5,0-1.1,0-1.6,0.1c-1.9,0-3.8,0.1-5.7,0.1c-1.4,0-2.8,0-4.2,0.1c-1.2,0-2.4,0-3.6,0c-2,0-4,0.1-6,0.1  c-1.9,0-3.8,0.1-5.7,0.1c-2.3,0-4.6,0-7,0.1c-2.8,0-5.6,0-8.3,0c-3.2,0-6.4,0-9.6-0.1c-2.7,0-5.4-0.1-8.2-0.1  c-2.3,0-4.6-0.1-6.9-0.1c-2.6,0-5.2-0.1-7.8-0.1c-1.1,0-2.1-0.1-3.2-0.1c0.6,0,1.2,0,1.8,0c1.5,0,3.1,0,4.6,0c1.8,0,3.6-0.1,5.5-0.1  c1.8,0,3.7-0.1,5.5-0.1c1.5,0,2.9-0.1,4.4-0.1c1,0,2.1,0,3.1,0c2.8,0,5.5-0.1,8.3-0.1c3.4,0,6.9,0,10.3,0c2.4,0,4.9,0,7.3,0  c2,0,4,0.1,6.1,0.1c1.8,0,3.6,0,5.4,0.1c1.8,0,3.6,0.1,5.4,0.1c2.8,0,5.7,0.1,8.5,0.1C87.9,66.9,88.4,66.9,89,66.9  C89,66.9,89,66.9,89,66.9z"></path><path d="M11.3,34.1c1.1,0,2.3,0,3.4,0c1.2,0,2.3,0,3.5,0c2.1,0,4.3-0.1,6.4-0.1c2.1,0,4.2-0.1,6.3-0.1c2.5,0,5.1-0.1,7.6-0.1  c5-0.1,9.9-0.1,14.9-0.1c2.4,0,4.7,0,7.1,0c1.8,0,3.6,0,5.4,0.1c1.5,0,3,0.1,4.6,0.1c1.3,0,2.6,0,3.9,0c2.3,0,4.6,0.1,6.9,0.1  c1.6,0,3.2,0,4.7,0.1c0.8,0,1.7,0,2.5,0.1c-0.4,0-0.7,0-1.1,0c-2.6,0-5.3,0.1-7.9,0.1c-2.1,0-4.2,0.1-6.2,0.1c-2.3,0-4.6,0.1-7,0.1  c-2.4,0-4.8,0-7.2,0.1c-4.6,0.1-9.2,0.1-13.8,0c-2.9,0-5.9-0.1-8.8-0.1c-2.2,0-4.4-0.1-6.6-0.1c-0.7,0-1.5,0-2.2,0  c-2.2,0-4.3-0.1-6.5-0.1c-2.2,0-4.3-0.1-6.5-0.1C13.5,34.2,12.4,34.1,11.3,34.1C11.3,34.1,11.3,34.1,11.3,34.1z"></path><path d="M88.3,68.3c-2.5,0-4.9,0.1-7.4,0.1c-1.4,0-2.8,0-4.2,0.1c-0.6,0-1.2,0-1.9,0c-2.8,0-5.7,0.1-8.5,0.1c-2.8,0-5.6,0.1-8.4,0.1  c-3.3,0-6.5,0.1-9.8,0c-3.1,0-6.1,0-9.2-0.1c-1.2,0-2.3,0-3.5,0c-2.3,0-4.6,0-6.8-0.1c-2.3,0-4.6-0.1-7-0.1c-1.5,0-2.9,0-4.4-0.1  c-2,0-4-0.1-6-0.1c0.8,0,1.6,0,2.4,0c1.5,0,2.9,0,4.4,0c1.9,0,3.8-0.1,5.7-0.1c2.4,0,4.9-0.1,7.3-0.1c0.9,0,1.9,0,2.8-0.1  c1.3,0,2.7,0,4,0c5-0.1,10.1-0.1,15.1-0.1c2.4,0,4.7,0,7.1,0c2.5,0,5.1,0.1,7.6,0.1c2.2,0,4.3,0.1,6.5,0.1c2.1,0,4.2,0.1,6.3,0.1  C83.1,68.2,85.7,68.2,88.3,68.3C88.3,68.3,88.3,68.3,88.3,68.3z"></path><path d="M11.8,32.7c0.9,0,1.7,0,2.6,0c1.5,0,3,0,4.5,0c2.1,0,4.3-0.1,6.4-0.1c2.4,0,4.8-0.1,7.2-0.1c1.6,0,3.2,0,4.8-0.1  c2.7,0,5.5-0.1,8.2-0.1c2.9,0,5.7,0,8.6,0c1.2,0,2.5,0,3.7,0c2.9,0,5.7,0.1,8.6,0.1c2.3,0,4.6,0.1,6.9,0.1c2.2,0,4.3,0.1,6.5,0.1  c2.6,0,5.2,0.1,7.7,0.1c0,0,0.1,0,0.1,0c-0.4,0-0.8,0-1.2,0c-1.9,0-3.7,0.1-5.6,0.1c-1.4,0-2.7,0-4.1,0.1c-0.8,0-1.6,0-2.4,0  c-2.1,0-4.1,0.1-6.2,0.1c-1,0-2.1,0-3.1,0c-2.3,0-4.6,0.1-7,0.1c-2.3,0-4.6,0-7,0c-2,0-4,0-6.1,0c-2.7,0-5.4,0-8.1-0.1  c-2.9,0-5.8-0.1-8.7-0.1c-2.1,0-4.2-0.1-6.3-0.1c-2.3,0-4.6-0.1-6.9-0.1C14.1,32.8,12.9,32.8,11.8,32.7  C11.8,32.7,11.8,32.7,11.8,32.7z"></path><path d="M87.7,69.7c-0.5,0-1.1,0-1.6,0c-1.9,0-3.7,0.1-5.6,0.1c-1.6,0-3.3,0-4.9,0.1c-1.2,0-2.5,0-3.7,0c-2.4,0-4.9,0.1-7.3,0.1  c-4,0-7.9,0.1-11.9,0.1c-3.6,0-7.2,0-10.8,0c-1.3,0-2.6,0-3.9,0c-2.2,0-4.5,0-6.7-0.1c-2.7,0-5.5-0.1-8.2-0.1  c-2.6,0-5.2-0.1-7.8-0.1c-1,0-2-0.1-3-0.1c0.7,0,1.3,0,2,0c1.6,0,3.2,0,4.8,0c2,0,4-0.1,6.1-0.1c2.4,0,4.9-0.1,7.3-0.1  c2.4,0,4.8-0.1,7.2-0.1c3.7,0,7.3,0,11-0.1c2.4,0,4.7,0,7.1,0c2.2,0,4.3,0,6.5,0.1c2.7,0,5.4,0.1,8.1,0.1c2.4,0,4.8,0.1,7.2,0.1  C82.2,69.6,84.9,69.6,87.7,69.7C87.6,69.6,87.6,69.6,87.7,69.7z"></path><path d="M87.6,31.4c-2.8,0-5.6,0.1-8.3,0.1c-2.4,0-4.9,0.1-7.3,0.1c-2,0-4,0.1-6,0.1c-3.7,0-7.4,0.1-11.1,0.1c-2.9,0-5.7,0-8.6,0  c-1.9,0-3.8,0-5.7,0c-2,0-4,0-6-0.1c-1.6,0-3.2,0-4.8,0c-1.9,0-3.9-0.1-5.8-0.1c-2.7,0-5.3-0.1-8-0.1c-1.2,0-2.3-0.1-3.5-0.1  c1.2,0,2.3,0,3.5,0c2,0,4-0.1,6-0.1c1.4,0,2.7,0,4.1,0c2.2,0,4.3-0.1,6.5-0.1c2.3,0,4.5-0.1,6.8-0.1c2,0,3.9,0,5.9,0  c2.9,0,5.8,0,8.7,0c3.6,0,7.3,0,10.9,0.1c2.5,0,5,0.1,7.5,0.1c2.3,0,4.5,0.1,6.8,0.1c2.7,0,5.4,0.1,8.1,0.1  C87.4,31.3,87.5,31.3,87.6,31.4C87.6,31.3,87.6,31.4,87.6,31.4z"></path><path d="M87,71.1c-2.7,0-5.4,0.1-8.1,0.1c-1.3,0-2.6,0-3.8,0.1c-1.5,0-3,0-4.5,0.1c-1.6,0-3.1,0-4.7,0.1c-1.8,0-3.6,0-5.4,0  c-4.4,0-8.7,0-13.1,0.1c-2.2,0-4.4,0-6.6,0c-3.3,0-6.5-0.1-9.8-0.1c-2.3,0-4.6-0.1-6.9-0.1c-2.6,0-5.2-0.1-7.8-0.1c-1,0-2-0.1-3-0.1  c0.8,0,1.6,0,2.4,0c1.5,0,3.1,0,4.6,0c2.2,0,4.5-0.1,6.7-0.1c2.5,0,5.1-0.1,7.6-0.1c3.5,0,7-0.1,10.6-0.1c2.1,0,4.3,0,6.4,0  c3.4,0,6.7,0,10.1,0.1c1,0,2,0,3,0c2.6,0,5.3,0.1,7.9,0.1c2,0,4.1,0.1,6.1,0.1C81.3,70.9,84.1,71,87,71.1C87,71,87,71,87,71.1z"></path><path d="M13.2,30c1.7,0,3.3,0,5,0c1.6,0,3.2,0,4.8-0.1c0.7,0,1.3,0,2,0c1,0,1.9,0,2.9,0c2,0,4-0.1,6.1-0.1c3.1,0,6.2-0.1,9.3-0.1  c5.3,0,10.5,0,15.8,0c1.4,0,2.8,0,4.1,0c2,0,4,0,6,0.1c2.7,0,5.5,0.1,8.2,0.1c2.3,0,4.6,0,6.8,0.1c0.7,0,1.5,0,2.2,0.1  c-0.3,0-0.6,0-0.9,0c-2.1,0.1-4.3,0.1-6.4,0.1c-1.5,0-3.1,0-4.6,0.1c-1.3,0-2.6,0-3.9,0c-2.4,0-4.8,0.1-7.2,0.1  c-3,0-5.9,0.1-8.9,0.1c-3,0-5.9,0-8.9,0c-2.1,0-4.2,0-6.3,0c-2.8,0-5.5,0-8.3-0.1c-2.3,0-4.7-0.1-7-0.1c-2.5,0-5-0.1-7.5-0.1  C15.4,30.1,14.3,30,13.2,30C13.2,30,13.2,30,13.2,30z"></path><path d="M13.8,72.4c1.1,0,2.2,0,3.3,0c2.2,0,4.5-0.1,6.7-0.1c1.4,0,2.9,0,4.3,0c2.7,0,5.4-0.1,8.1-0.1c3.4,0,6.7-0.1,10.1-0.1  c3.7,0,7.5,0,11.2,0c1.8,0,3.6,0,5.4,0c2.1,0,4.2,0,6.2,0.1c2.3,0,4.6,0.1,6.8,0.1c2.7,0,5.5,0.1,8.2,0.1c0.7,0,1.3,0,2,0  c-0.4,0-0.8,0-1.1,0c-1.9,0-3.8,0.1-5.7,0.1c-1.1,0-2.3,0-3.4,0c-2.2,0-4.4,0.1-6.6,0.1c-2.9,0-5.8,0.1-8.7,0.1c-1.2,0-2.4,0-3.6,0  c-3.5,0-7,0-10.5,0c-1.1,0-2.1,0-3.2,0c-3,0-6,0-8.9-0.1c-3.2,0-6.3-0.1-9.5-0.1c-2.6,0-5.2-0.1-7.8-0.1  C16.1,72.5,15,72.4,13.8,72.4C13.8,72.4,13.8,72.4,13.8,72.4z"></path><path d="M85.6,28.6c-0.9,0-1.7,0-2.6,0.1c-1.5,0-2.9,0-4.4,0.1c-1.6,0-3.2,0-4.7,0.1c-1.6,0-3.2,0-4.7,0.1c-2.1,0-4.1,0-6.2,0.1  c-1.7,0-3.5,0-5.2,0c-3.9,0-7.9,0-11.8,0c-3.3,0-6.7-0.1-10-0.1c-1,0-1.9,0-2.9,0c-1.5,0-3,0-4.5-0.1c-0.8,0-1.6,0-2.5,0  c-2.8,0-5.6-0.1-8.3-0.1c-1.3,0-2.6-0.1-3.8-0.1c0.9,0,1.8,0,2.7,0c1.7,0,3.3,0,5,0c2,0,3.9,0,5.9-0.1c2.9,0,5.9-0.1,8.8-0.1  c2.6,0,5.2-0.1,7.8-0.1c3.5,0,7.1,0,10.6,0c2.9,0,5.8,0,8.8,0.1c2,0,4,0,6,0.1c2.6,0,5.2,0.1,7.8,0.1c2.1,0,4.3,0,6.4,0.1  C84.3,28.6,85,28.6,85.6,28.6C85.6,28.6,85.6,28.6,85.6,28.6z"></path><path d="M85.2,73.8c-0.8,0-1.6,0-2.4,0c-2.7,0-5.3,0.1-8,0.1c-2.2,0-4.4,0.1-6.6,0.1c-3.4,0-6.8,0.1-10.2,0.1c-2.4,0-4.8,0-7.2,0  c-3.8,0-7.7,0-11.5,0c-1.5,0-3.1,0-4.6,0c-2.8,0-5.6-0.1-8.3-0.1c-2.7,0-5.5-0.1-8.2-0.1c-1.2,0-2.3-0.1-3.5-0.1c0.8,0,1.5,0,2.3,0  c1.7,0,3.4,0,5.2,0c2.6,0,5.2-0.1,7.7-0.1c2.9,0,5.8-0.1,8.7-0.1c2.3,0,4.5,0,6.8-0.1c2.2,0,4.4,0,6.7,0c2.6,0,5.2,0,7.8,0  c2.7,0,5.4,0.1,8.2,0.1c2.3,0,4.6,0,6.9,0.1c2.3,0,4.6,0.1,6.9,0.1C82.8,73.7,84,73.7,85.2,73.8C85.2,73.7,85.2,73.8,85.2,73.8z"></path><path d="M85.1,27.3c-0.7,0-1.4,0-2.1,0c-2.8,0-5.6,0.1-8.3,0.1c-2.7,0-5.4,0.1-8.1,0.1c-4.4,0-8.7,0.1-13.1,0.1c-1.5,0-3,0-4.5,0  c-4.4,0-8.8,0-13.2-0.1c-2.5,0-5,0-7.5-0.1c-3.4,0-6.7-0.1-10.1-0.1c-1,0-2-0.1-2.9-0.1c1.2,0,2.5,0,3.7,0c1.3,0,2.7,0,4,0  c2,0,3.9,0,5.9-0.1c3.2,0,6.4-0.1,9.6-0.1c4,0,7.9,0,11.9-0.1c2.2,0,4.5,0,6.7,0c3.3,0,6.6,0.1,9.9,0.1c2.5,0,5,0.1,7.4,0.1  c3,0,6,0.1,9,0.1C83.9,27.2,84.5,27.2,85.1,27.3C85.1,27.2,85.1,27.2,85.1,27.3z"></path><path d="M15.4,75.1c1.4,0,2.7,0,4.1,0c1.3,0,2.6,0,3.9,0c2.7,0,5.4-0.1,8.2-0.1c3.6,0,7.1-0.1,10.7-0.1c4.2,0,8.4,0,12.6,0  c2.9,0,5.8,0,8.7,0.1c1.2,0,2.5,0,3.7,0c1.8,0,3.6,0,5.4,0.1c1.9,0,3.7,0.1,5.6,0.1c1.3,0,2.7,0,4,0c0.7,0,1.4,0,2.1,0  c-0.9,0-1.8,0-2.7,0.1c-2.2,0-4.3,0.1-6.5,0.1c-2.3,0-4.6,0.1-6.9,0.1c-1,0-2,0-3.1,0c-2.7,0-5.4,0-8.1,0.1c-2.6,0-5.3,0-7.9,0  c-1.8,0-3.6,0-5.4,0c-2.4,0-4.8,0-7.2,0c-3,0-6-0.1-8.9-0.1c-2.8,0-5.7-0.1-8.5-0.1C18,75.2,16.7,75.2,15.4,75.1  C15.4,75.1,15.4,75.1,15.4,75.1z"></path><path d="M84.2,25.9c-0.8,0-1.6,0-2.4,0c-2.2,0-4.5,0.1-6.7,0.1c-3,0-6.1,0.1-9.1,0.1c-5,0-10,0.1-14.9,0.1c-3.8,0-7.6,0-11.4,0  c-2.8,0-5.6-0.1-8.4-0.1c-0.8,0-1.6,0-2.5,0c-2.8,0-5.6-0.1-8.4-0.1c-1.5,0-2.9-0.1-4.4-0.1c0.7,0,1.5,0,2.2,0c1.8,0,3.6,0,5.5,0  c2.6,0,5.2-0.1,7.8-0.1c2.2,0,4.3,0,6.5-0.1c3.3,0,6.6,0,9.9,0c3.2,0,6.4,0,9.6,0c2.1,0,4.2,0,6.3,0c3.1,0,6.1,0.1,9.2,0.1  c3.6,0,7.3,0.1,10.9,0.1C83.9,25.9,84,25.9,84.2,25.9C84.2,25.9,84.2,25.9,84.2,25.9z"></path><path d="M83.6,76.5c-0.8,0-1.6,0-2.4,0.1c-2.7,0-5.4,0.1-8.1,0.1c-2.9,0-5.9,0-8.8,0.1c-6.5,0.1-13,0.1-19.6,0.1c-2,0-4.1,0-6.1,0  c-1.9,0-3.9,0-5.8,0c-2.2,0-4.4,0-6.6-0.1c-2,0-4,0-6-0.1c-1.2,0-2.5-0.1-3.7-0.1c0.8,0,1.7,0,2.5,0c1.1,0,2.2,0,3.3,0  c1.8,0,3.6-0.1,5.4-0.1c1.8,0,3.7,0,5.5,0c3.4,0,6.7-0.1,10.1-0.1c3.8,0,7.6,0,11.4,0c3.5,0,7.1,0,10.6,0.1c2.9,0,5.7,0.1,8.6,0.1  c3.1,0,6.3,0.1,9.4,0.1C83.5,76.5,83.5,76.5,83.6,76.5z"></path><path d="M16.7,24.5c0.9,0,1.9,0,2.8,0c2.1,0,4.1,0,6.2,0c2.4,0,4.7,0,7.1-0.1c3.1,0,6.2-0.1,9.3-0.1c4.8,0,9.6,0,14.4,0  c2.4,0,4.7,0,7.1,0c3.2,0,6.3,0.1,9.5,0.1c3.2,0,6.3,0.1,9.5,0.1c0.1,0,0.1,0,0.2,0c-0.6,0-1.3,0-1.9,0c-3.1,0-6.2,0.1-9.3,0.1  c-2.5,0-5,0.1-7.6,0.1c-4.1,0-8.3,0.1-12.4,0.1c-4,0-8.1,0-12.1,0c-2.8,0-5.6-0.1-8.4-0.1c-2.9,0-5.8-0.1-8.7-0.1  C20.5,24.6,18.6,24.6,16.7,24.5C16.7,24.5,16.7,24.5,16.7,24.5z"></path><path d="M17.7,77.8c0.9,0,1.8,0,2.6,0c1.9,0,3.7,0,5.6,0c3.4,0,6.9,0,10.3-0.1c6.4-0.1,12.7-0.1,19.1-0.1c2.5,0,5,0,7.6,0  c2.6,0,5.2,0,7.8,0.1c3,0,6,0.1,9.1,0.1c0.9,0,1.7,0,2.6,0c-1.1,0-2.2,0.1-3.4,0.1c-1.9,0-3.8,0-5.7,0.1c-2.2,0-4.4,0.1-6.7,0.1  c-1.5,0-3.1,0-4.6,0c-2,0-4.1,0-6.1,0c-2.9,0-5.7,0-8.6,0c-1.5,0-3.1,0-4.6,0c-2.6,0-5.1,0-7.7-0.1c-2.5,0-4.9,0-7.4-0.1  c-1.7,0-3.3,0-5,0C21,77.9,19.4,77.9,17.7,77.8C17.8,77.9,17.7,77.9,17.7,77.8z"></path><path d="M17.9,23.1c0.8,0,1.6,0,2.5,0c1.2,0,2.3,0,3.5,0c2.3,0,4.5-0.1,6.8-0.1c2.3,0,4.5,0,6.8,0c3.5,0,7,0,10.5-0.1  c3,0,6.1,0,9.1,0c1.4,0,2.9,0,4.3,0c3.4,0,6.9,0.1,10.3,0.1c2.6,0,5.3,0.1,7.9,0.1c0.8,0,1.6,0,2.5,0c-1.8,0-3.6,0.1-5.4,0.1  c-2.3,0-4.6,0-7,0.1c-4.1,0-8.2,0.1-12.4,0.1c-4.5,0-9,0-13.4,0c-3.4,0-6.8,0-10.2-0.1c-2.7,0-5.3-0.1-8-0.1c-1.4,0-2.7,0-4.1,0  C20.4,23.2,19.2,23.2,17.9,23.1C17.9,23.1,17.9,23.1,17.9,23.1z"></path><path d="M18.7,79.2c0.9,0,1.7,0,2.6,0c2.1,0,4.3,0,6.4,0c3.8,0,7.5-0.1,11.3-0.1c5.3,0,10.6,0,15.9,0c1.7,0,3.5,0,5.2,0  c2.4,0,4.7,0,7.1,0.1c2.4,0,4.8,0.1,7.2,0.1c2.1,0,4.3,0,6.4,0c0.1,0,0.2,0,0.3,0c-0.9,0-1.7,0-2.6,0c-3.5,0-7,0.1-10.5,0.1  c-3.6,0-7.1,0.1-10.7,0.1c-4.5,0-9,0-13.4,0c-2.7,0-5.4,0-8.1,0c-3.7,0-7.4-0.1-11.1-0.1C22.6,79.3,20.7,79.3,18.7,79.2  C18.7,79.2,18.7,79.2,18.7,79.2z"></path><path d="M80.8,21.8c-1.1,0-2.2,0-3.2,0.1c-3.2,0-6.4,0.1-9.7,0.1c-3.6,0-7.2,0.1-10.8,0.1c-4.5,0-8.9,0-13.4,0c-2.7,0-5.5,0-8.2,0  c-3.1,0-6.2,0-9.3-0.1c-2.3,0-4.6-0.1-6.9-0.1c0.8,0,1.7,0,2.5,0c2.2,0,4.4,0,6.6,0c3.1,0,6.2-0.1,9.3-0.1c1.3,0,2.6,0,4,0  c2.7,0,5.4,0,8.2,0c2.5,0,5,0,7.4,0c3.5,0,6.9,0,10.4,0.1c4.3,0,8.6,0.1,12.9,0.1C80.6,21.8,80.7,21.8,80.8,21.8  C80.8,21.8,80.8,21.8,80.8,21.8z"></path><path d="M20,80.6c1.7,0,3.4,0,5.1,0c1.6,0,3.2,0,4.8,0c3.3,0,6.7-0.1,10-0.1c4.5,0,9,0,13.4,0c4.5,0,8.9,0,13.4,0.1  c3.4,0,6.9,0.1,10.3,0.1c0.9,0,1.8,0,2.7,0.1c-0.9,0-1.8,0-2.8,0c-2.9,0-5.8,0-8.8,0.1c-7.9,0.1-15.8,0.1-23.7,0.1  c-2.8,0-5.7,0-8.5,0c-3.3,0-6.6-0.1-9.9-0.1c-2,0-4-0.1-6-0.1C20.1,80.6,20,80.6,20,80.6z"></path><path d="M79.4,20.4c-0.8,0-1.6,0-2.4,0c-2.4,0-4.8,0.1-7.2,0.1c-1.6,0-3.2,0-4.8,0c-6.9,0.1-13.9,0.1-20.8,0.1c-2.8,0-5.5,0-8.3,0  c-3.1,0-6.2-0.1-9.3-0.1c-2,0-4-0.1-6-0.1c0.1,0,0.3,0,0.4,0c2.4,0,4.9,0,7.3,0c1,0,1.9,0,2.9,0c6.9,0,13.8-0.1,20.6-0.1  c4.5,0,9,0,13.4,0c3.9,0,7.8,0.1,11.7,0.1C77.8,20.4,78.6,20.4,79.4,20.4C79.4,20.4,79.4,20.4,79.4,20.4z"></path><path d="M21.4,82c1.1,0,2.1,0,3.2,0c2.4,0,4.7,0,7.1,0c2.7,0,5.5-0.1,8.2-0.1c1.6,0,3.2,0,4.8,0c2.8,0,5.6,0,8.3,0  c4.6,0,9.1,0,13.7,0.1c2.8,0,5.7,0,8.5,0.1c1,0,2,0,3,0.1c-1.1,0-2.2,0-3.4,0.1c-3.1,0-6.3,0.1-9.4,0.1c-2.6,0-5.3,0-7.9,0.1  c-0.9,0-1.9,0-2.8,0c-4.1,0-8.1,0-12.2,0c-4.6,0-9.1,0-13.7-0.1c-1.9,0-3.9-0.1-5.8-0.1C22.6,82,22,82,21.4,82  C21.4,82,21.4,82,21.4,82z"></path><path d="M22.1,19c18.5-0.2,37-0.2,55.6,0c-0.7,0-1.4,0-2.1,0c-2.6,0-5.1,0.1-7.7,0.1c-1.6,0-3.3,0-4.9,0c-2.2,0-4.5,0-6.7,0  c-3.6,0-7.2,0-10.8,0c-1.9,0-3.8,0-5.7,0c-2.8,0-5.7,0-8.5-0.1c-1.6,0-3.2,0-4.7,0C25,19.1,23.5,19.1,22.1,19z"></path><path d="M23.2,83.3c17.9-0.2,35.8-0.2,53.6,0c-1,0-1.9,0-2.9,0c-2.7,0-5.4,0.1-8.1,0.1c-2.6,0-5.1,0-7.7,0c-4.5,0-9,0-13.5,0  c-1.9,0-3.8,0-5.7,0c-3.7,0-7.5,0-11.2-0.1C26.2,83.4,24.7,83.4,23.2,83.3z"></path><path d="M23.6,17.7c17.5-0.2,35.1-0.2,52.6,0c-0.8,0-1.6,0-2.5,0c-1.4,0-2.9,0-4.3,0.1c-2.4,0-4.8,0-7.2,0c-2.1,0-4.1,0-6.2,0  c-3.8,0-7.6,0-11.3,0c-4.3,0-8.5,0-12.8-0.1C29.2,17.8,26.4,17.7,23.6,17.7z"></path><path d="M24.8,84.7c16.7-0.2,33.4-0.2,50.1,0c-1.1,0-2.2,0-3.4,0c-4.4,0-8.8,0.1-13.1,0.1c-4.9,0-9.7,0-14.6,0c-3.3,0-6.5,0-9.8,0  C30.9,84.8,27.9,84.8,24.8,84.7z"></path><path d="M25.4,16.3c3.8-0.1,44.5-0.1,48.8,0c-0.9,0-1.9,0-2.8,0c-4.6,0.1-9.2,0.1-13.8,0.1c-4.2,0-8.5,0-12.7,0c-3.3,0-6.6,0-9.8,0  c-1.6,0-3.2,0-4.7,0c-1.5,0-3.1-0.1-4.6-0.1C25.6,16.3,25.6,16.3,25.4,16.3z"></path><path d="M26.9,86.1c4-0.1,41.1-0.1,46,0c-1.1,0-2.2,0-3.3,0c-4,0-8.1,0.1-12.1,0.1c-6.1,0-12.1,0-18.2,0c-2.2,0-4.5,0-6.7,0  C30.6,86.1,28.8,86.1,26.9,86.1z"></path><path d="M72.1,14.9c-0.7,0-1.5,0-2.2,0c-2.1,0-4.1,0.1-6.2,0.1c-2.3,0-4.6,0-7,0c-6.2,0-12.4,0-18.6,0c-1.7,0-3.4,0-5.1,0  c-1.8,0-3.7-0.1-5.5-0.1C29.3,14.8,69.5,14.8,72.1,14.9z"></path><path d="M70.5,87.4c-5.3,0.2-33.2,0.2-41.7,0C42.8,87.3,56.7,87.3,70.5,87.4z"></path><path d="M70,13.6c-13.3,0.2-26.6,0.2-39.9,0C31.2,13.5,68,13.5,70,13.6z"></path><path d="M31.6,88.8c2.7-0.1,33.6-0.1,36.4,0c-0.9,0-1.7,0-2.6,0c-1.7,0-3.4,0-5.1,0.1c-1.9,0-3.8,0-5.7,0c-4.4,0-8.8,0-13.2,0  c-2.1,0-4.2,0-6.3-0.1C34.1,88.8,32.8,88.8,31.6,88.8z"></path><path d="M32.6,12.2c11.5-0.1,23.1-0.1,34.6,0c-3.8,0-7.7,0.1-11.5,0.1c-3.8,0-7.7,0-11.5,0C40.3,12.3,36.5,12.2,32.6,12.2z"></path><path d="M34.4,90.2c10.1-0.1,20.2-0.1,30.3,0C54.6,90.3,44.5,90.3,34.4,90.2z"></path><path d="M36.4,10.8c9.2,0,18.3,0,27.5,0C54.8,10.9,45.6,10.9,36.4,10.8z"></path><path d="M39.2,91.5c7.1,0,14.2,0,21.4,0C53.4,91.6,46.3,91.6,39.2,91.5z"></path><path d="M41.2,9.4c5.8,0,11.5,0,17.3,0c0,0,0,0,0,0C52.7,9.5,46.9,9.5,41.2,9.4C41.2,9.5,41.2,9.5,41.2,9.4z"></path><path d="M86.3,28.6C86.3,28.6,86.3,28.6,86.3,28.6C86.3,28.6,86.3,28.6,86.3,28.6C86.3,28.6,86.3,28.6,86.3,28.6z"></path><polygon points="83.6,24.5 83.5,24.5 83.5,24.5 "></polygon><path d="M65.2,90.2C65.1,90.2,65.1,90.2,65.2,90.2C65.1,90.2,65.1,90.2,65.2,90.2C65.1,90.2,65.1,90.2,65.2,90.2  C65.1,90.2,65.1,90.2,65.2,90.2z"></path><polygon points="60.3,9.5 60.3,9.5 60.3,9.5 "></polygon><polygon points="26.2,86.1 26.2,86.1 26.2,86.1 "></polygon><polygon points="74.7,16.3 74.7,16.3 74.7,16.3 "></polygon><polygon points="85.6,73.7 85.6,73.7 85.6,73.8 "></polygon><polygon points="39.9,9.5 39.9,9.5 39.9,9.5 "></polygon></g>
</svg>
</g><g opacity="1" transform="rotate(0 24.9005 166.2514)">
<svg width="359.6849" height="40" x="24.9005" y="166.2514" version="1.1" preserveAspectRatio="none" viewBox="1.96 -29.04 273 30.36">
  <g transform="matrix(1 0 0 1 0 0)" class="companyName"><path id="id-D6z1nYkh10" d="M37.76-28.32L26.36 1.28L19.84-15.80L13.16 1.32L1.96-28.32L4.20-28.32L13.36-3.28L18.88-18.24L15.04-28.32L17-28.32L26.44-3.52L35.68-28.32L37.76-28.32Z M40.64-14.16Q40.64-18.08 42.60-21.42Q44.56-24.76 47.88-26.74Q51.20-28.72 55.12-28.72L55.12-28.72Q59.04-28.72 62.40-26.74Q65.76-24.76 67.72-21.42Q69.68-18.08 69.68-14.16L69.68-14.16Q69.68-10.24 67.72-6.90Q65.76-3.56 62.40-1.62Q59.04 0.32 55.12 0.32L55.12 0.32Q51.16 0.32 47.84-1.56Q44.52-3.44 42.58-6.76Q40.64-10.08 40.64-14.16L40.64-14.16ZM42.64-14.12Q42.64-10.72 44.32-7.84Q46-4.96 48.84-3.26Q51.68-1.56 55.08-1.56L55.08-1.56Q58.52-1.56 61.42-3.24Q64.32-4.92 66-7.82Q67.68-10.72 67.68-14.16L67.68-14.16Q67.68-17.60 65.98-20.50Q64.28-23.40 61.40-25.12Q58.52-26.84 55.12-26.84L55.12-26.84Q51.68-26.84 48.80-25.10Q45.92-23.36 44.28-20.44Q42.64-17.52 42.64-14.12L42.64-14.12Z M95.12 0L92.84 0L85.40-12.08Q84.56-11.92 83.28-11.92L83.28-11.92L78.88-11.92L78.88 0L76.92 0L76.92-28.40L83.40-28.40Q85.64-28.40 87.70-27.52Q89.76-26.64 91.06-24.84Q92.36-23.04 92.36-20.36L92.36-20.36Q92.36-17.76 91.16-15.66Q89.96-13.56 87.44-12.60L87.44-12.60L95.12 0ZM83.16-13.80Q87.04-13.80 88.70-15.72Q90.36-17.64 90.36-20.28L90.36-20.28Q90.36-21.96 89.54-23.40Q88.72-24.84 87.20-25.68Q85.68-26.52 83.68-26.52L83.68-26.52L78.88-26.52L78.88-13.80L83.16-13.80Z M102.24-28.40L104.20-28.40L104.20-1.88L119.76-1.88L119.76 0L102.24 0L102.24-28.40Z M126.36 0L126.36-28.40L133.36-28.40Q138.56-28.40 141.98-26.28Q145.40-24.16 146.98-20.88Q148.56-17.60 148.56-14.04L148.56-14.04Q148.56-9.88 146.66-6.68Q144.76-3.48 141.58-1.74Q138.40 0 134.72 0L134.72 0L126.36 0ZM128.32-1.88L134.20-1.88Q137.64-1.88 140.46-3.38Q143.28-4.88 144.92-7.66Q146.56-10.44 146.56-14.16L146.56-14.16Q146.56-17.48 145.06-20.30Q143.56-23.12 140.64-24.80Q137.72-26.48 133.64-26.48L133.64-26.48L128.32-26.48L128.32-1.88Z M182.96-29.04L183-29.04L183 0L181.08 0L181.08-23.32L169.40-6.88L169.32-6.88L157.72-23.12L157.72 0L155.80 0L155.80-29.04L155.84-29.04L169.36-9.80L182.96-29.04Z M193.84-9.60Q193.84-7.16 194.84-5.34Q195.84-3.52 197.62-2.54Q199.40-1.56 201.64-1.56L201.64-1.56Q203.92-1.56 205.70-2.54Q207.48-3.52 208.50-5.34Q209.52-7.16 209.52-9.60L209.52-9.60L209.52-28.40L211.44-28.40L211.44-9.48Q211.44-6.44 210.16-4.24Q208.88-2.04 206.66-0.86Q204.44 0.32 201.64 0.32L201.64 0.32Q198.88 0.32 196.66-0.86Q194.44-2.04 193.16-4.24Q191.88-6.44 191.88-9.48L191.88-9.48L191.88-28.40L193.84-28.40L193.84-9.60Z M234.52-25.20Q233.08-25.88 231.32-26.36Q229.56-26.84 227.88-26.84L227.88-26.84Q225.08-26.84 223.40-25.46Q221.72-24.08 221.72-21.92L221.72-21.92Q221.72-20.40 222.62-19.34Q223.52-18.28 224.92-17.58Q226.32-16.88 228.52-16.04L228.52-16.04Q230.92-15.16 232.50-14.24Q234.08-13.32 235.16-11.74Q236.24-10.16 236.24-7.68L236.24-7.68Q236.24-5.32 235.12-3.50Q234-1.68 231.98-0.68Q229.96 0.32 227.36 0.32L227.36 0.32Q222.84 0.32 218.40-2.60L218.40-2.60L219.32-4.20Q220.80-3.08 222.96-2.24Q225.12-1.40 227.16-1.40L227.16-1.40Q228.96-1.40 230.58-2.10Q232.20-2.80 233.22-4.22Q234.24-5.64 234.24-7.64L234.24-7.64Q234.24-9.52 233.30-10.80Q232.36-12.08 230.94-12.86Q229.52-13.64 227.36-14.44L227.36-14.44Q224.96-15.32 223.40-16.14Q221.84-16.96 220.78-18.32Q219.72-19.68 219.72-21.72L219.72-21.72Q219.72-23.72 220.74-25.26Q221.76-26.80 223.58-27.66Q225.40-28.52 227.64-28.56L227.64-28.56Q229.56-28.56 231.62-28.04Q233.68-27.52 235.28-26.72L235.28-26.72L234.52-25.20Z M243.56-28.40L245.52-28.40L245.52 0L243.56 0L243.56-28.40Z M274.96-1.88Q273.40-0.92 271.44-0.30Q269.48 0.32 267.24 0.32L267.24 0.32Q262.96 0.32 259.68-1.60Q256.40-3.52 254.58-6.80Q252.76-10.08 252.76-14L252.76-14Q252.76-18.12 254.64-21.48Q256.52-24.84 259.80-26.78Q263.08-28.72 267.08-28.72L267.08-28.72Q271.28-28.72 274.84-26.56L274.84-26.56L274-24.76Q270.64-26.84 267.12-26.84L267.12-26.84Q263.80-26.84 260.96-25.14Q258.12-23.44 256.46-20.50Q254.80-17.56 254.80-14.08L254.80-14.08Q254.80-10.64 256.32-7.78Q257.84-4.92 260.64-3.24Q263.44-1.56 267.12-1.56L267.12-1.56Q270.80-1.56 274.04-3.60L274.04-3.60L274.96-1.88Z"/></g>
</svg>
</g></svg></svg>